<svg xmlns="http://www.w3.org/2000/svg" viewBox="0 0 250 250" style="fill:#f9f4ef;width:26px;height:26px;padding:5px"><path d="m83.333 125 43.25-25-43.25-25zm96.334-65.25c1.083 3.917 1.833 9.167 2.333 15.833.583 6.667.833 12.417.833 17.417l.5 7c0 18.25-1.333 31.667-3.666 40.25-2.084 7.5-6.917 12.333-14.417 14.417-3.917 1.083-11.083 1.833-22.083 2.333-10.834.583-20.75.833-29.917.833l-13.25.5c-34.917 0-56.667-1.333-65.25-3.666-7.5-2.084-12.333-6.917-14.417-14.417-1.083-3.917-1.833-9.167-2.333-15.833-.583-6.667-.833-12.417-.833-17.417l-.5-7c0-18.25 1.333-31.667 3.666-40.25 2.084-7.5 6.917-12.333 14.417-14.417C38.667 44.25 45.833 43.5 56.833 43c10.834-.583 20.75-.833 29.917-.833l13.25-.5c34.917 0 56.667 1.333 65.25 3.666 7.5 2.084 12.333 6.917 14.417 14.417"></path></svg>