<svg xmlns="http://www.w3.org/2000/svg" viewBox="0 0 250 250" style="fill:#f9f4ef;width:26px;height:26px;padding:5px"><path d="M65 16.667h70c26.667 0 48.333 21.666 48.333 48.333v70A48.334 48.334 0 0 1 135 183.333H65c-26.667 0-48.333-21.666-48.333-48.333V65A48.333 48.333 0 0 1 65 16.667m-1.667 16.666a30 30 0 0 0-30 30v73.334c0 16.583 13.417 30 30 30h73.334a30 30 0 0 0 30-30V63.333c0-16.583-13.417-30-30-30zm80.417 12.5a10.418 10.418 0 1 1 0 20.836 10.418 10.418 0 0 1 0-20.836M100 58.333a41.667 41.667 0 1 1 0 83.334 41.667 41.667 0 0 1 0-83.334M100 75a25 25 0 1 0 0 50 25 25 0 0 0 0-50"></path></svg>