<svg xmlns="http://www.w3.org/2000/svg" viewBox="0 0 250 250" style="fill:#f9f4ef;width:26px;height:26px;padding:5px"><path d="M165.151 17a18.52 18.52 0 0 1 18.519 18.519V165.15a18.52 18.52 0 0 1-18.519 18.519H35.519A18.52 18.52 0 0 1 17 165.151V35.519A18.52 18.52 0 0 1 35.519 17zm-4.63 143.521v-49.075a30.186 30.186 0 0 0-30.185-30.186c-7.871 0-17.038 4.816-21.482 12.038V83.02H83.02v77.501h25.834v-45.649c0-7.129 5.741-12.963 12.87-12.963a12.965 12.965 0 0 1 12.964 12.963v45.649zM52.927 68.483a15.556 15.556 0 0 0 15.556-15.556c0-8.612-6.945-15.649-15.556-15.649a15.65 15.65 0 0 0-15.649 15.649c0 8.61 7.037 15.556 15.649 15.556m12.87 92.038V83.02H40.15v77.501z"></path></svg>