<svg xmlns="http://www.w3.org/2000/svg" viewBox="0 0 250 250" style="fill:#f9f4ef;width:26px;height:26px;padding:5px"><path d="M75.333 179.5c8 2.417 16.084 3.833 24.667 3.833a83.334 83.334 0 0 0 58.926-142.258A83.34 83.34 0 0 0 68.11 23.01 83.33 83.33 0 0 0 16.667 100c0 35.417 22.25 65.833 53.666 77.833-.75-6.5-1.5-17.25 0-24.666L79.917 112S77.5 107.167 77.5 99.5c0-11.5 7.167-20.083 15.333-20.083 7.167 0 10.5 5.25 10.5 12 0 7.166-4.75 17.416-7.166 27.25C94.75 126.833 100.5 134 108.833 134c14.834 0 26.334-15.833 26.334-38.167 0-20-14.334-33.666-34.917-33.666-23.5 0-37.333 17.5-37.333 35.916 0 7.167 2.333 14.417 6.166 19.167.75.5.75 1.167.5 2.417l-2.416 9.083c0 1.417-.917 1.917-2.334.917C54.167 125 48 109.833 48 97.583c0-26.333 18.667-50.25 54.667-50.25 28.666 0 51 20.584 51 47.917 0 28.667-17.75 51.667-43.167 51.667-8.083 0-16-4.334-18.833-9.417l-5.584 19.75c-1.916 7.167-7.166 16.75-10.75 22.5z"></path></svg>